<svg xmlns="http://www.w3.org/2000/svg" xmlns:xlink="http://www.w3.org/1999/xlink" width="81" height="38" viewBox="0 0 81 38" version="1.1">
  <defs>
    <rect id="path-1" x="22" y="4" width="2" height="14"/>
    <mask id="mask-2" maskContentUnits="userSpaceOnUse" maskUnits="objectBoundingBox" x="0" y="0" width="2" height="14" fill="white">
      <use xlink:href="#path-1"/>
    </mask>
  </defs>
  <g id="Page-1" stroke="none" stroke-width="1" fill="none" fill-rule="evenodd">
    <g id="BUILT-FOR-PRIMETIME--✓" transform="translate(-33.000000, -28.000000)" stroke-width="2">
      <g id="ANVIL" transform="translate(35.000000, 29.000000)">
        <path d="M77.02 0L27 0 27 4 0 4C0 4 1.25 18 17.4 18L28.76 18C32.26 18 35.11 20.84 35.11 24.35 35.11 27.85 31.51 30.68 28 30.68L28 35.07 65 35.08 65 31.04C65 31.04 59.62 28.51 59.62 21.27 59.62 14.04 66.75 8.51 77.02 8.01L77.02 0Z" id="Combined-Shape" stroke="#000000"/>
        <use id="Rectangle" stroke="#000000" mask="url(#mask-2)" xlink:href="#path-1"/>
        <polyline id="Line" stroke="#27A2C4" stroke-linecap="round" stroke-linejoin="round" points="48.84 8 43 13.84 50.98 15.86 44.5 22.35"/>
      </g>
    </g>
  </g>
</svg>
