<svg xmlns="http://www.w3.org/2000/svg" xmlns:xlink="http://www.w3.org/1999/xlink" width="59" height="52" viewBox="0 0 59 52" version="1.1">
  <defs>
    <rect id="path-1" x="47" y="7" width="11" height="2" rx="1"/>
    <mask id="mask-2" maskContentUnits="userSpaceOnUse" maskUnits="objectBoundingBox" x="0" y="0" width="11" height="2" fill="white">
      <use xlink:href="#path-1"/>
    </mask>
    <rect id="path-3" x="34" y="18" width="22" height="2" rx="1"/>
    <mask id="mask-4" maskContentUnits="userSpaceOnUse" maskUnits="objectBoundingBox" x="0" y="0" width="22" height="2" fill="white">
      <use xlink:href="#path-3"/>
    </mask>
    <rect id="path-5" x="30" y="22" width="22" height="2" rx="1"/>
    <mask id="mask-6" maskContentUnits="userSpaceOnUse" maskUnits="objectBoundingBox" x="0" y="0" width="22" height="2" fill="white">
      <use xlink:href="#path-5"/>
    </mask>
    <rect id="path-7" x="7" y="32" width="3" height="2" rx="1"/>
    <mask id="mask-8" maskContentUnits="userSpaceOnUse" maskUnits="objectBoundingBox" x="0" y="0" width="3" height="2" fill="white">
      <use xlink:href="#path-7"/>
    </mask>
    <rect id="path-9" x="53" y="22" width="3" height="2" rx="1"/>
    <mask id="mask-10" maskContentUnits="userSpaceOnUse" maskUnits="objectBoundingBox" x="0" y="0" width="3" height="2" fill="white">
      <use xlink:href="#path-9"/>
    </mask>
    <rect id="path-11" x="54" y="3" width="3" height="2" rx="1"/>
    <mask id="mask-12" maskContentUnits="userSpaceOnUse" maskUnits="objectBoundingBox" x="0" y="0" width="3" height="2" fill="white">
      <use xlink:href="#path-11"/>
    </mask>
    <rect id="path-13" x="12" y="32" width="29" height="2" rx="1"/>
    <mask id="mask-14" maskContentUnits="userSpaceOnUse" maskUnits="objectBoundingBox" x="0" y="0" width="29" height="2" fill="white">
      <use xlink:href="#path-13"/>
    </mask>
    <rect id="path-15" x="43" y="32" width="9" height="2" rx="1"/>
    <mask id="mask-16" maskContentUnits="userSpaceOnUse" maskUnits="objectBoundingBox" x="0" y="0" width="9" height="2" fill="white">
      <use xlink:href="#path-15"/>
    </mask>
    <rect id="path-17" x="7" y="36" width="22" height="2" rx="1"/>
    <mask id="mask-18" maskContentUnits="userSpaceOnUse" maskUnits="objectBoundingBox" x="0" y="0" width="22" height="2" fill="white">
      <use xlink:href="#path-17"/>
    </mask>
    <rect id="path-19" x="30" y="36" width="26" height="2" rx="1"/>
    <mask id="mask-20" maskContentUnits="userSpaceOnUse" maskUnits="objectBoundingBox" x="0" y="0" width="26" height="2" fill="white">
      <use xlink:href="#path-19"/>
    </mask>
  </defs>
  <g id="Page-1" stroke="none" stroke-width="1" fill="none" fill-rule="evenodd">
    <g id="TRAINING-&amp;-SUPPORT---✓" transform="translate(-46.000000, -30.000000)" stroke-width="2">
      <g id="BOOKS" transform="translate(47.000000, 31.000000)">
        <polyline id="Path-9-Copy" stroke="#27A2C4" transform="translate(16.932486, 43.228072) rotate(26.000000) translate(-16.932486, -43.228072) " points="19.15 35.5 24.42 46.29 18.26 45.95 14.68 50.96 9.45 40.23"/>
        <path d="M58 42L32 42M58 42L25 42M8.5 42L6.99 42C3.13 42 0 38.86 0 35 0 31.13 3.14 28 7 28L58 28M58 28L7 28C3.13 28 0 24.86 0 21L0 21C0 17.13 3.14 14 7 14L58 14M58 14L7 14C3.13 14 0 10.86 0 7L0 7C0 3.13 3.14 0 7 0L58 0M55 28L31 28C27.13 28 24 24.86 24 21L24 21C24 17.13 27.14 14 31 14L55 14M51 14L47 14C43.13 14 40 10.86 40 7L40 7C40 3.13 43.14 0 46.99 0L56 0" id="Rectangle-86" stroke="#1C1C1C"/>
        <use id="Rectangle-87" stroke="#1C1C1C" mask="url(#mask-2)" xlink:href="#path-1"/>
        <use id="Rectangle-87-Copy" stroke="#1C1C1C" mask="url(#mask-4)" xlink:href="#path-3"/>
        <use id="Rectangle-87-Copy-8" stroke="#1C1C1C" mask="url(#mask-6)" xlink:href="#path-5"/>
        <use id="Rectangle-87-Copy-2" stroke="#1C1C1C" mask="url(#mask-8)" xlink:href="#path-7"/>
        <use id="Rectangle-87-Copy-7" stroke="#1C1C1C" mask="url(#mask-10)" xlink:href="#path-9"/>
        <use id="Rectangle-87-Copy-9" stroke="#1C1C1C" mask="url(#mask-12)" xlink:href="#path-11"/>
        <use id="Rectangle-87-Copy-3" stroke="#1C1C1C" mask="url(#mask-14)" xlink:href="#path-13"/>
        <use id="Rectangle-87-Copy-6" stroke="#1C1C1C" mask="url(#mask-16)" xlink:href="#path-15"/>
        <use id="Rectangle-87-Copy-4" stroke="#1C1C1C" mask="url(#mask-18)" xlink:href="#path-17"/>
        <use id="Rectangle-87-Copy-5" stroke="#1C1C1C" mask="url(#mask-20)" xlink:href="#path-19"/>
      </g>
    </g>
  </g>
</svg>
